<?xml version="1.0" encoding="utf-8"?>
<!-- Generator: Adobe Illustrator 23.0.2, SVG Export Plug-In . SVG Version: 6.00 Build 0)  -->
<svg version="1.1" id="Layer_1" xmlns="http://www.w3.org/2000/svg" xmlns:xlink="http://www.w3.org/1999/xlink" x="0px" y="0px"
	 viewBox="0 0 290 324" style="enable-background:new 0 0 290 324;" xml:space="preserve">
<style type="text/css">
	.st0{fill-rule:evenodd;clip-rule:evenodd;fill:url(#SVGID_1_);stroke:#236191;stroke-linecap:round;stroke-linejoin:round;}
	.st1{fill:#0167BB;}
</style>
<title>Login_Illustr_Common-04</title>
<g id="objects">
	
		<linearGradient id="SVGID_1_" gradientUnits="userSpaceOnUse" x1="63.1068" y1="217.2651" x2="63.1068" y2="113.1114" gradientTransform="matrix(1 0 0 -1 0 323.89)">
		<stop  offset="2.000000e-02" style="stop-color:#EBFAFF"/>
		<stop  offset="0.97" style="stop-color:#FFFFFF"/>
	</linearGradient>
	<path class="st0" d="M0,210.8c0-7,7.1-13.5,12.9-15c27.6-7.4,36.1-4.8,35.9-23.8c-4.1-4.3-7-9.5-8.6-15.2l-1.7,0.3
		c-2,0.3-3.9-1.1-4.2-3.1c0,0,0,0,0,0l-1.7-11.3c-0.3-2,1-3.9,3.1-4.3l1.3-0.2c-0.6-1.8-0.9-3.7-0.9-5.6v-4.2
		c0-10.1,8.1-18.4,18.2-18.5h2.2c0-0.3,0-0.7,0.1-1c1.1-3,8.6-2.9,16.7,0.2c1.6,0.6,3.2,1.4,4.8,2.2c6.8,2.9,11.2,9.7,11.2,17.1v4.2
		c0,1.9-0.3,3.8-0.9,5.6l1.3,0.2c2,0.3,3.4,2.2,3.1,4.3L91,153.8c-0.3,2-2.1,3.4-4.2,3.1c0,0,0,0,0,0l-1-0.2
		c-1.4,5.1-3.9,9.8-7.3,13.8c2.3,21,4.6,17.2,34.9,25.2c5.8,1.5,12.9,8,12.9,15"/>
	<path class="st1" d="M145.7,169.6v-23.3h6.6c1.7-0.1,3.4,0.4,4.8,1.5c1.2,0.9,1.8,2.4,1.8,3.9c0,1.2-0.4,2.4-1.1,3.4
		c-0.7,1-1.8,1.7-3,2.1v0.1c1.4,0.1,2.8,0.7,3.8,1.8c1,1.1,1.5,2.5,1.4,3.9c0.1,1.9-0.7,3.6-2.2,4.8c-1.5,1.3-3.4,1.9-5.4,1.9
		L145.7,169.6z M148.4,148.7v7.5h2.8c1.3,0.1,2.5-0.3,3.5-1.1c0.9-0.8,1.3-1.9,1.3-3.1c0-2.3-1.5-3.4-4.5-3.4H148.4z M148.4,158.7
		v8.4h3.7c1.3,0.1,2.7-0.3,3.7-1.1c0.9-0.8,1.4-1.9,1.3-3.1c0-2.8-1.9-4.1-5.6-4.1L148.4,158.7z"/>
	<path class="st1" d="M176.6,152.9l-5.6,8.4l5.5,8.2h-3.1l-3.3-5.4c-0.2-0.3-0.4-0.8-0.7-1.3h-0.1c-0.1,0.1-0.3,0.5-0.8,1.3
		l-3.3,5.4h-3l5.7-8.2l-5.4-8.5h3.1l3.2,5.7c0.2,0.4,0.5,0.9,0.7,1.3h0.1l4.2-7L176.6,152.9z"/>
	<path class="st1" d="M186.7,169.9c-2.2,0.1-4.4-0.8-5.9-2.3c-1.5-1.7-2.3-3.9-2.2-6.2c0-2.8,0.8-5,2.3-6.6c1.6-1.6,3.9-2.5,6.2-2.3
		c2.2-0.1,4.3,0.7,5.8,2.3c1.4,1.5,2.1,3.6,2.1,6.4c0.1,2.3-0.7,4.6-2.3,6.4C191.2,169.2,189,170.1,186.7,169.9z M186.9,154.8
		c-1.6-0.1-3,0.6-4.1,1.7c-1.1,1.4-1.6,3.1-1.5,4.8c-0.1,1.7,0.4,3.4,1.5,4.7c1,1.1,2.5,1.8,4,1.7c1.5,0.1,3-0.5,4-1.7
		c1-1.4,1.5-3.1,1.4-4.8c0.1-1.7-0.4-3.4-1.4-4.8C189.9,155.3,188.4,154.7,186.9,154.8z"/>
	<path class="st1" d="M213.8,175.6h-2.3v-6.1h-12.4v6.1h-2.3v-8.3h1.5c2.9-4.2,4.4-9.3,4.3-14.4h8.6v14.4h2.5L213.8,175.6z
		 M208.6,167.3v-12.1H205c-0.2,4.3-1.5,8.5-3.8,12.1H208.6z"/>
	<path class="st1" d="M145.3,209.5v-16.7h7.3c1.4-0.1,2.8,0.3,3.9,1.1c0.9,0.7,1.5,1.8,1.4,3c0.2,1.9-1.3,3.7-3.2,3.9
		c2.6,0.3,3.8,1.6,3.8,3.9c0,1.3-0.6,2.6-1.6,3.4c-1.1,0.9-2.5,1.4-3.9,1.4L145.3,209.5z M148,195.2v4.7h4c2.2,0,3.2-0.8,3.2-2.5
		c0-1.4-1-2.2-2.9-2.2L148,195.2z M148,202.1v5.1h4.6c2.2,0,3.2-0.9,3.2-2.6c0-1.7-1.2-2.5-3.6-2.5H148z"/>
	<path class="st1" d="M183.5,208.8c-1.4,0.8-3,1.2-4.6,1.2c-2.2,0.1-4.3-0.8-5.8-2.3c-1.5-1.6-2.3-3.8-2.2-6
		c-0.1-2.4,0.7-4.8,2.3-6.6c1.6-1.7,3.9-2.6,6.3-2.5c1.3,0,2.7,0.2,3.9,0.8v2.7c-1.2-0.8-2.5-1.3-4-1.3c-1.6,0-3.1,0.6-4.2,1.8
		c-1.1,1.3-1.7,3.1-1.6,4.8c-0.1,1.7,0.5,3.3,1.6,4.6c1.1,1.1,2.6,1.8,4.1,1.7c1.5,0,2.9-0.5,4.1-1.4L183.5,208.8z"/>
	<path class="st1" d="M201.5,209.5h-2.4v-13.3c-0.2,0.5-0.6,1.1-1.1,2l-7.7,11.3h-2.8v-16.6h2.4V206c0.2-0.6,0.5-1.1,0.8-1.6
		l7.9-11.5h2.8L201.5,209.5z"/>
	<path class="st1" d="M218.2,208.8c-1.4,0.8-3,1.2-4.6,1.2c-2.2,0.1-4.3-0.8-5.7-2.3c-1.5-1.6-2.3-3.8-2.2-6
		c-0.1-2.4,0.7-4.8,2.3-6.6c1.6-1.7,3.9-2.6,6.3-2.5c1.3,0,2.7,0.2,3.9,0.8v2.7c-1.2-0.8-2.5-1.3-4-1.3c-1.6,0-3.1,0.6-4.2,1.8
		c-1.1,1.3-1.7,3.1-1.6,4.8c-0.1,1.7,0.5,3.3,1.6,4.6c1.1,1.1,2.6,1.8,4.1,1.7c1.5,0,2.9-0.5,4.1-1.4L218.2,208.8z"/>
	<path class="st1" d="M232.7,195.2h-5v14.4h-2.7v-14.4h-5v-2.3h12.7V195.2z"/>
	<path class="st1" d="M249.3,201.9h-11.7c-0.1,1.6,0.5,3.1,1.5,4.3c1,1,2.5,1.6,3.9,1.5c1.9,0,3.7-0.7,5.2-1.9v2.5
		c-1.7,1.1-3.8,1.7-5.8,1.6c-2.1,0.1-4.1-0.7-5.5-2.3c-1.3-1.5-2-3.6-2-6.4c-0.1-2.3,0.7-4.6,2.2-6.3c1.4-1.6,3.4-2.5,5.5-2.5
		c1.9-0.1,3.8,0.7,5.1,2.1c1.2,1.4,1.8,3.4,1.8,5.9L249.3,201.9z M246.6,199.6c0.1-1.3-0.3-2.6-1.1-3.6c-0.8-0.9-1.9-1.3-3-1.3
		c-1.2,0-2.4,0.5-3.2,1.3c-0.9,1-1.5,2.2-1.6,3.5H246.6z"/>
	<path class="st1" d="M271.3,209.5h-2.6v-13.7c-0.2,0.7-0.6,1.7-1.1,3.1l-4.2,10.7H261l-4.3-10.7c-0.2-0.6-0.6-1.6-1.1-3.1v13.7
		h-2.3v-16.7h3.4l4.4,10.9c0.3,0.8,0.7,1.9,1.2,3.3l1.2-3.2l4.3-11h3.5V209.5z"/>
	<path class="st1" d="M290,192.9l-7.7,19.3c-1.4,3.5-3.3,5.2-5.8,5.2c-0.6,0-1.2-0.1-1.7-0.2v-2.4c0.5,0.2,1,0.3,1.6,0.3
		c1.3,0,2.3-0.8,3-2.4l1.3-3.1l-6.5-16.7h3l4.5,12.8c0.1,0.2,0.2,0.6,0.3,1.3h0.1c0.1-0.3,0.2-0.7,0.3-1.2l4.7-12.9H290z"/>
</g>
</svg>
